<?xml version="1.0" standalone="no"?>
<!DOCTYPE svg PUBLIC "-//W3C//DTD SVG 20010904//EN"
 "http://www.w3.org/TR/2001/REC-SVG-20010904/DTD/svg10.dtd">
<svg version="1.0" xmlns="http://www.w3.org/2000/svg"
 width="32" height="32" viewBox="0 0 512.000000 512.000000"
 preserveAspectRatio="xMidYMid meet">

<g transform="translate(0.000000,512.000000) scale(0.100000,-0.100000)"
fill="#fff" stroke="none">
<path d="M2414 5111 c-51 -13 -134 -63 -166 -100 -17 -19 -43 -60 -57 -91
l-26 -55 -5 -935 c-3 -514 -6 -927 -8 -917 -5 38 -52 115 -97 156 -69 64 -124
85 -220 85 -97 0 -167 -28 -232 -93 -59 -59 -85 -119 -97 -222 l-10 -88 -69
-15 c-215 -49 -388 -223 -433 -435 -10 -50 -14 -160 -14 -450 l0 -383 375
-469 375 -469 0 -315 0 -315 951 0 951 0 -3 323 -4 322 258 400 257 400 -2
695 -3 695 -23 45 c-48 98 -114 155 -212 184 -67 20 -112 20 -176 1 -106 -31
-176 -96 -219 -201 l-23 -56 -4 104 c-3 80 -9 113 -27 149 -102 211 -368 259
-532 96 -41 -41 -86 -121 -91 -162 -2 -11 -5 410 -8 935 l-5 955 -27 50 c-32
62 -104 130 -166 157 -50 23 -157 32 -208 19z"/>
</g>
</svg>
